<?xml version="1.0" encoding="utf-8"?>
<!-- Generator: Adobe Illustrator 27.5.0, SVG Export Plug-In . SVG Version: 6.00 Build 0)  -->
<svg version="1.1" xmlns="http://www.w3.org/2000/svg" xmlns:xlink="http://www.w3.org/1999/xlink" x="0px" y="0px"
	 viewBox="0 0 500 500" style="enable-background:new 0 0 500 500;" xml:space="preserve">
<g id="BACKGROUND">
	<radialGradient id="SVGID_1_" cx="250" cy="249.9998" r="250" gradientUnits="userSpaceOnUse">
		<stop  offset="0" style="stop-color:#244057"/>
		<stop  offset="0.203" style="stop-color:#223D53"/>
		<stop  offset="0.4237" style="stop-color:#1D3346"/>
		<stop  offset="0.6528" style="stop-color:#142330"/>
		<stop  offset="0.8862" style="stop-color:#070D12"/>
		<stop  offset="1" style="stop-color:#000000"/>
	</radialGradient>
	<rect y="0" style="fill:url(#SVGID_1_);" width="500" height="500"/>
</g>
<g id="OBJECTS">
	<g>
		<g>
			<path style="fill:#111110;" d="M250,394.159c-75.257,0-136.482-61.226-136.482-136.483c0-75.257,61.226-136.482,136.482-136.482
				s136.482,61.226,136.482,136.482C386.482,332.933,325.257,394.159,250,394.159z M250,129.193
				c-70.846,0-128.482,57.637-128.482,128.482S179.154,386.159,250,386.159s128.482-57.638,128.482-128.483
				S320.846,129.193,250,129.193z"/>
			<g>
				<g>
					<path style="fill:#111110;" d="M253.863,354.512c-27.097,0-51.902-9.527-69.848-26.827
						c-18.041-17.392-27.977-41.525-27.977-67.955c0-26.442,9.948-50.577,28.011-67.957c17.977-17.297,42.861-26.824,70.067-26.824
						c28.811,0,53.827,10.293,70.44,28.982l2.546,2.863l-22.138,21.458l-2.782-2.937c-12.622-13.322-28.013-19.798-47.053-19.798
						c-38.089,0-65.734,27.005-65.734,64.212c0,37.207,27.646,64.213,65.734,64.213c18.879,0,34.269-6.559,47.053-20.052
						l2.782-2.938l22.138,21.46l-2.546,2.862C307.798,344.129,282.691,354.512,253.863,354.512z M254.117,172.949
						c-52.194,0-90.078,36.497-90.078,86.781c0,50.285,37.776,86.782,89.824,86.782c25.413,0,46.795-8.198,62.101-23.755
						l-10.828-10.497c-13.683,13.064-30.485,19.683-50.005,19.683c-20.442,0-39.153-7.282-52.688-20.506
						c-13.572-13.261-21.047-31.624-21.047-51.707c0-20.082,7.475-38.446,21.047-51.707c13.534-13.223,32.246-20.506,52.688-20.506
						c19.652,0,36.455,6.534,50.003,19.431l10.829-10.497C300.793,181.059,279.501,172.949,254.117,172.949z"/>
				</g>
			</g>
		</g>
		
			<linearGradient id="SVGID_00000165226167955744424280000013779405747923868322_" gradientUnits="userSpaceOnUse" x1="153.5374" y1="337.5844" x2="346.4626" y2="144.6592">
			<stop  offset="0.099" style="stop-color:#BA5178"/>
			<stop  offset="0.2228" style="stop-color:#CC6C46"/>
			<stop  offset="0.3614" style="stop-color:#E0A928"/>
			<stop  offset="0.5297" style="stop-color:#EEF63F"/>
			<stop  offset="0.6386" style="stop-color:#EEF63F"/>
			<stop  offset="0.7772" style="stop-color:#92EB7E"/>
			<stop  offset="0.8812" style="stop-color:#94FFDE"/>
			<stop  offset="1" style="stop-color:#2A4884"/>
		</linearGradient>
		<path style="fill:url(#SVGID_00000165226167955744424280000013779405747923868322_);" d="M250,377.604
			c-75.257,0-136.482-61.226-136.482-136.483c0-75.257,61.226-136.482,136.482-136.482s136.482,61.226,136.482,136.482
			C386.482,316.379,325.257,377.604,250,377.604z M250,112.639c-70.846,0-128.482,57.637-128.482,128.482
			S179.154,369.604,250,369.604s128.482-57.638,128.482-128.483S320.846,112.639,250,112.639z"/>
		<g>
			<g>
				
					<linearGradient id="SVGID_00000079480800897582471290000014029031435281118089_" gradientUnits="userSpaceOnUse" x1="184.6118" y1="311.7484" x2="321.8667" y2="174.4935">
					<stop  offset="0.099" style="stop-color:#BA5178"/>
					<stop  offset="0.2228" style="stop-color:#CC6C46"/>
					<stop  offset="0.3614" style="stop-color:#E0A928"/>
					<stop  offset="0.5297" style="stop-color:#EEF63F"/>
					<stop  offset="0.6386" style="stop-color:#EEF63F"/>
					<stop  offset="0.7772" style="stop-color:#92EB7E"/>
					<stop  offset="0.8812" style="stop-color:#94FFDE"/>
					<stop  offset="1" style="stop-color:#2A4884"/>
				</linearGradient>
				<path style="fill:url(#SVGID_00000079480800897582471290000014029031435281118089_);" d="M253.863,337.958
					c-27.097,0-51.902-9.527-69.848-26.827c-18.041-17.392-27.977-41.525-27.977-67.955c0-26.442,9.948-50.577,28.011-67.957
					c17.977-17.297,42.861-26.824,70.067-26.824c28.811,0,53.827,10.293,70.44,28.983l2.546,2.863l-22.138,21.458l-2.782-2.937
					c-12.622-13.322-28.013-19.798-47.053-19.798c-38.089,0-65.734,27.005-65.734,64.212s27.646,64.213,65.734,64.213
					c18.879,0,34.269-6.559,47.053-20.052l2.782-2.938l22.138,21.46l-2.546,2.862C307.798,327.575,282.691,337.958,253.863,337.958z
					 M254.117,156.395c-52.194,0-90.078,36.497-90.078,86.781c0,50.285,37.776,86.782,89.824,86.782
					c25.413,0,46.795-8.198,62.101-23.755l-10.828-10.497c-13.683,13.064-30.485,19.683-50.005,19.683
					c-20.442,0-39.153-7.282-52.688-20.506c-13.572-13.261-21.047-31.624-21.047-51.707c0-20.083,7.475-38.446,21.047-51.706
					c13.534-13.223,32.246-20.506,52.688-20.506c19.652,0,36.455,6.534,50.003,19.431l10.829-10.497
					C300.793,164.505,279.501,156.395,254.117,156.395z"/>
			</g>
		</g>
	</g>
</g>

</svg>
